# Blender v2.79 (sub 0) OBJ File: ''
# www.blender.org
mtllib labyrinthus_pyramid2.mtl
o Cube.001
v -0.500000 0.500000 0.500000
v -0.500000 -0.500000 0.500001
v 0.500000 -0.500000 0.500000
v 0.500000 0.500000 0.499999
v -0.000000 -0.000000 -0.500000
vt 1.000000 1.000000
vt 0.000000 1.000000
vt 0.000000 0.000000
vt 1.000000 0.000000
vt 1.000000 0.000000
vt 0.500000 1.000000
vt 0.000000 0.000000
vt 0.000000 0.000000
vt 1.000000 0.000000
vt 0.000000 0.000000
vt 1.000000 0.000000
vn 0.0000 0.0000 1.0000
vn 0.8944 -0.0000 -0.4472
vn -0.0000 0.8944 -0.4472
vn -0.8944 -0.0000 -0.4472
vn -0.0000 -0.8944 -0.4472
usemtl None
s 1
f 1/1/1 2/2/1 3/3/1 4/4/1
f 3/5/2 5/6/2 4/7/2
f 5/6/3 1/8/3 4/4/3
f 1/9/4 5/6/4 2/10/4
f 2/11/5 5/6/5 3/3/5
